<svg xmlns="http://www.w3.org/2000/svg" fill="none" viewBox="0 0 186 168"><g clip-path="url(#prefix__clip0)"><g filter="url(#prefix__filter0_dd)"><rect width="186" height="200" fill="#F4F5F7" rx="6"/></g><g filter="url(#prefix__filter1_d)"><rect width="162" height="36" x="12" y="40" fill="#fff" rx="2"/></g><g filter="url(#prefix__filter2_d)"><rect width="162" height="36" x="12" y="88" fill="#fff" rx="2"/></g><g filter="url(#prefix__filter3_d)"><rect width="162" height="36" x="12" y="136" fill="#fff" rx="2"/></g><path fill="#4B5563" d="M12.286 15.273l3.166 5.3V24h1.312v-3.426l3.166-5.301h-1.495l-2.28 3.967h-.094l-2.28-3.967h-1.495zm10.476 8.86c1.845 0 3.051-1.352 3.051-3.376 0-2.037-1.206-3.388-3.05-3.388-1.846 0-3.052 1.351-3.052 3.388 0 2.024 1.206 3.375 3.051 3.375zm.004-1.07c-1.206 0-1.768-1.053-1.768-2.31 0-1.253.562-2.318 1.768-2.318 1.198 0 1.76 1.065 1.76 2.318 0 1.257-.562 2.31-1.76 2.31zm8.616-1.777c.004 1.112-.823 1.64-1.539 1.64-.788 0-1.333-.57-1.333-1.461v-4.01h-1.275v4.163c0 1.623.891 2.467 2.148 2.467.985 0 1.654-.52 1.956-1.219h.068V24h1.253v-6.546h-1.278v3.831zM34.372 24h1.274v-3.997c0-.857.66-1.475 1.564-1.475.264 0 .563.047.665.077v-1.219a5.16 5.16 0 00-.541-.03c-.767 0-1.424.435-1.662 1.138h-.068v-1.04h-1.232V24zm9.056-3.886c0-1.044.639-1.641 1.525-1.641.865 0 1.39.567 1.39 1.517V24h1.273v-4.163c0-1.62-.89-2.468-2.228-2.468-.985 0-1.628.456-1.93 1.15h-.082v-1.064h-1.223V24h1.275v-3.886zm8.718 4.018c1.428 0 2.438-.703 2.728-1.768l-1.206-.218c-.23.618-.785.933-1.509.933-1.09 0-1.824-.707-1.858-1.968h4.654v-.452c0-2.365-1.415-3.29-2.898-3.29-1.824 0-3.026 1.39-3.026 3.4 0 2.034 1.185 3.363 3.115 3.363zm-1.84-3.976c.05-.929.724-1.734 1.76-1.734.988 0 1.636.733 1.64 1.734h-3.4zM57.775 24h1.295l1.33-4.726h.098L61.829 24h1.299l1.922-6.546h-1.317l-1.274 4.786h-.064l-1.279-4.785H59.8l-1.287 4.806h-.064l-1.283-4.806H55.85L57.776 24zm14.416.132c1.547 0 2.548-.929 2.689-2.203h-1.24c-.162.707-.712 1.125-1.44 1.125-1.079 0-1.773-.9-1.773-2.327 0-1.402.707-2.284 1.772-2.284.81 0 1.304.511 1.44 1.125h1.24c-.136-1.32-1.214-2.199-2.701-2.199-1.845 0-3.038 1.39-3.038 3.388 0 1.973 1.15 3.375 3.05 3.375zm5.956.013c1.083 0 1.692-.55 1.935-1.04h.05V24h1.245v-4.347c0-1.904-1.5-2.284-2.54-2.284-1.184 0-2.275.478-2.701 1.67l1.197.273c.188-.464.665-.911 1.522-.911.822 0 1.244.43 1.244 1.171v.03c0 .465-.477.456-1.654.593-1.24.145-2.51.468-2.51 1.956 0 1.287.968 1.994 2.212 1.994zm.277-1.023c-.72 0-1.24-.324-1.24-.954 0-.682.605-.925 1.342-1.023.414-.055 1.394-.166 1.577-.35v.844c0 .776-.618 1.483-1.679 1.483zm4.65.878h1.274v-3.997c0-.857.66-1.475 1.564-1.475.265 0 .563.047.665.077v-1.219a5.158 5.158 0 00-.541-.03c-.767 0-1.423.435-1.662 1.138h-.068v-1.04h-1.232V24zm8.048-6.546H89.78v-1.568h-1.274v1.569h-.958v1.022h.958v3.865c-.004 1.19.904 1.765 1.91 1.743.404-.004.677-.08.826-.136l-.23-1.053c-.085.017-.243.056-.447.056-.414 0-.784-.137-.784-.874v-3.6h1.342v-1.024z"/></g><defs><filter id="prefix__filter0_dd" width="210" height="224" x="-12" y="-2" color-interpolation-filters="sRGB" filterUnits="userSpaceOnUse"><feFlood flood-opacity="0" result="BackgroundImageFix"/><feColorMatrix in="SourceAlpha" values="0 0 0 0 0 0 0 0 0 0 0 0 0 0 0 0 0 0 127 0"/><feMorphology in="SourceAlpha" radius="2" result="effect1_dropShadow"/><feOffset dy="4"/><feGaussianBlur stdDeviation="3"/><feColorMatrix values="0 0 0 0 0 0 0 0 0 0 0 0 0 0 0 0 0 0 0.05 0"/><feBlend in2="BackgroundImageFix" result="effect1_dropShadow"/><feColorMatrix in="SourceAlpha" values="0 0 0 0 0 0 0 0 0 0 0 0 0 0 0 0 0 0 127 0"/><feMorphology in="SourceAlpha" radius="3" result="effect2_dropShadow"/><feOffset dy="10"/><feGaussianBlur stdDeviation="7.5"/><feColorMatrix values="0 0 0 0 0 0 0 0 0 0 0 0 0 0 0 0 0 0 0.1 0"/><feBlend in2="effect1_dropShadow" result="effect2_dropShadow"/><feBlend in="SourceGraphic" in2="effect2_dropShadow" result="shape"/></filter><filter id="prefix__filter1_d" width="166" height="40" x="10" y="39" color-interpolation-filters="sRGB" filterUnits="userSpaceOnUse"><feFlood flood-opacity="0" result="BackgroundImageFix"/><feColorMatrix in="SourceAlpha" values="0 0 0 0 0 0 0 0 0 0 0 0 0 0 0 0 0 0 127 0"/><feOffset dy="1"/><feGaussianBlur stdDeviation="1"/><feColorMatrix values="0 0 0 0 0 0 0 0 0 0 0 0 0 0 0 0 0 0 0.05 0"/><feBlend in2="BackgroundImageFix" result="effect1_dropShadow"/><feBlend in="SourceGraphic" in2="effect1_dropShadow" result="shape"/></filter><filter id="prefix__filter2_d" width="166" height="40" x="10" y="87" color-interpolation-filters="sRGB" filterUnits="userSpaceOnUse"><feFlood flood-opacity="0" result="BackgroundImageFix"/><feColorMatrix in="SourceAlpha" values="0 0 0 0 0 0 0 0 0 0 0 0 0 0 0 0 0 0 127 0"/><feOffset dy="1"/><feGaussianBlur stdDeviation="1"/><feColorMatrix values="0 0 0 0 0 0 0 0 0 0 0 0 0 0 0 0 0 0 0.05 0"/><feBlend in2="BackgroundImageFix" result="effect1_dropShadow"/><feBlend in="SourceGraphic" in2="effect1_dropShadow" result="shape"/></filter><filter id="prefix__filter3_d" width="166" height="40" x="10" y="135" color-interpolation-filters="sRGB" filterUnits="userSpaceOnUse"><feFlood flood-opacity="0" result="BackgroundImageFix"/><feColorMatrix in="SourceAlpha" values="0 0 0 0 0 0 0 0 0 0 0 0 0 0 0 0 0 0 127 0"/><feOffset dy="1"/><feGaussianBlur stdDeviation="1"/><feColorMatrix values="0 0 0 0 0 0 0 0 0 0 0 0 0 0 0 0 0 0 0.05 0"/><feBlend in2="BackgroundImageFix" result="effect1_dropShadow"/><feBlend in="SourceGraphic" in2="effect1_dropShadow" result="shape"/></filter><clipPath id="prefix__clip0"><path fill="#fff" d="M0 0h186v168H0z"/></clipPath></defs></svg>
