<svg xmlns="http://www.w3.org/2000/svg" fill="none" viewBox="0 0 42 46"><path fill="#404040" d="M22.21 6.835A1.2 1.2 0 0121 8.046c-.679 0-1.211-.533-1.211-1.163V1.212A1.2 1.2 0 0120.999 0a1.2 1.2 0 011.21 1.212v5.623z"/><path fill="#404040" fill-rule="evenodd" d="M38.236 18.904l3.147 6.544c.145.34.145.678.048 1.018-.145.34-.387.581-.726.678l-2.373.824v11.197c0 .485-.338.921-.822 1.115l-16.123 5.672a.388.388 0 01-.099.031.67.67 0 01-.057.009C21.16 46 21.08 46 21 46c-.146 0-.243 0-.388-.048L4.49 40.28a1.149 1.149 0 01-.824-1.115V27.92l-2.372-.824c-.339-.097-.581-.34-.726-.679-.097-.29-.097-.678.048-.97l3.195-6.543a1.34 1.34 0 01.414-.494 1.01 1.01 0 01.265-.136l16.122-5.671c.242-.097.533-.097.775 0l16.17 5.671c.1.05.194.105.28.168.09.066.172.14.244.225.06.071.111.15.155.237zm-4.745.533L21 15.027 8.508 19.388 21 23.799l12.49-4.362zM19.353 25.74L5.506 20.89l-2.13 4.363L17.223 30.1l2.13-4.362zm-1.888 7.028L6.087 28.792v9.453l13.702 4.847V30.295l-.872 1.842a1.16 1.16 0 01-1.065.679c-.074 0-.136 0-.198-.007a.866.866 0 01-.189-.042zM22.21 43.19l13.702-4.848v-9.5l-11.378 3.975c-.097.048-.242.048-.388.048a1.16 1.16 0 01-1.065-.679l-.871-1.842V43.19zm.435-17.402l2.13 4.363 13.848-4.848-2.13-4.362-13.848 4.847z" clip-rule="evenodd"/><path fill="#404040" d="M29.017 10.429a1.194 1.194 0 001.327-.54l3.002-4.8c.339-.581.193-1.308-.388-1.648-.58-.339-1.307-.193-1.645.388L28.31 8.628c-.338.533-.145 1.309.388 1.648a.95.95 0 00.32.153zM12.623 10.47c-.387 0-.774-.194-1.016-.582L8.605 5.09c-.34-.534-.194-1.31.387-1.649.533-.339 1.307-.193 1.646.388l3.002 4.799c.34.533.194 1.309-.387 1.648a1.064 1.064 0 01-.63.194z"/></svg>
